<?xml version="1.0" encoding="UTF-8" standalone="no"?>
<!-- Generator: Adobe Illustrator 23.0.3, SVG Export Plug-In . SVG Version: 6.00 Build 0)  -->

<svg
   xmlns:dc="http://purl.org/dc/elements/1.1/"
   xmlns:cc="http://creativecommons.org/ns#"
   xmlns:rdf="http://www.w3.org/1999/02/22-rdf-syntax-ns#"
   xmlns:svg="http://www.w3.org/2000/svg"
   xmlns="http://www.w3.org/2000/svg"
   xmlns:sodipodi="http://sodipodi.sourceforge.net/DTD/sodipodi-0.dtd"
   xmlns:inkscape="http://www.inkscape.org/namespaces/inkscape"
   version="1.1"
   id="Layer_1"
   x="0px"
   y="0px"
   viewBox="0 0 305.7 82.525002"
   xml:space="preserve"
   sodipodi:docname="new-logo-only.svg"
   inkscape:version="0.92.2 5c3e80d, 2017-08-06"
   width="305.70001"
   height="82.525002"><metadata
     id="metadata4611"><rdf:RDF><cc:Work
         rdf:about=""><dc:format>image/svg+xml</dc:format><dc:type
           rdf:resource="http://purl.org/dc/dcmitype/StillImage" /><dc:title>Excl_Fndn_LOGO_ALL</dc:title></cc:Work></rdf:RDF></metadata><defs
     id="defs4609" /><sodipodi:namedview
     pagecolor="#ffffff"
     bordercolor="#666666"
     borderopacity="1"
     objecttolerance="10"
     gridtolerance="10"
     guidetolerance="10"
     inkscape:pageopacity="0"
     inkscape:pageshadow="2"
     inkscape:window-width="1124"
     inkscape:window-height="619"
     id="namedview4607"
     showgrid="false"
     inkscape:zoom="0.73826662"
     inkscape:cx="181.25772"
     inkscape:cy="40.675"
     inkscape:window-x="0"
     inkscape:window-y="0"
     inkscape:window-maximized="0"
     inkscape:current-layer="Layer_1" /><style
     type="text/css"
     id="style4158">
	.st0{fill:none;stroke:#58595B;stroke-width:1.75;stroke-miterlimit:10;}
	.st1{fill:#58595B;}
	.st2{fill:none;stroke:#231F20;stroke-width:1.66;stroke-miterlimit:10;}
	.st3{fill:#231F20;}
	.st4{fill:#A7A9AC;}
	.st5{fill:#FFFFFF;}
	.st6{fill:none;stroke:#231F20;stroke-width:1.75;stroke-miterlimit:10;}
</style><title
     id="title4160">Excl_Fndn_LOGO_ALL</title><path
     class="st3"
     d="m 19.2,25.7 c 0.6,0 1.1,0.4 1.2,1 0,0.2 0,0.3 -0.1,0.5 l -0.5,1.7 c -0.2,0.8 -1,1.4 -1.9,1.5 h -6 c -0.7,-0.1 -1.3,0.4 -1.4,1.1 l -0.8,2.9 c -0.2,0.9 0,1.1 0.8,1.1 h 4 c 0.6,0 1.1,0.5 1.1,1.1 0,0.1 0,0.3 -0.1,0.4 L 15,38.7 c -0.2,0.8 -1,1.4 -1.8,1.5 h -4 C 8.5,40.1 7.9,40.6 7.8,41.3 L 7,44.1 c -0.2,0.9 0,1.1 0.8,1.1 h 6 c 0.6,0 1.1,0.4 1.2,1 0,0.1 0,0.3 -0.1,0.4 l -0.5,1.8 c -0.2,0.8 -1,1.4 -1.8,1.4 H 1.4 C 0.7,49.8 0.1,49.3 0,48.6 0,48.4 0,48.3 0.1,48.1 L 5.6,27.5 c 0.3,-1 1.2,-1.7 2.2,-1.7 z"
     id="path4472"
     inkscape:connector-curvature="0"
     style="fill:#231f20" /><path
     class="st3"
     d="M 26.2,36.4 23,29.5 c -0.2,-0.3 -0.2,-0.7 -0.1,-1 0.2,-0.6 0.6,-1.1 1.2,-1.4 L 26,26 c 0.3,-0.2 0.6,-0.3 1,-0.3 0.5,0 1,0.3 1.3,0.8 l 2.5,5.3 c 0.3,0.5 0.6,0.8 0.9,0.8 0.5,-0.1 1,-0.3 1.3,-0.8 l 5.4,-5.3 c 0.4,-0.5 1,-0.7 1.7,-0.8 0.3,0 0.7,0.1 0.9,0.3 l 1.3,1.1 c 0.4,0.4 0.5,0.9 0.4,1.4 -0.1,0.4 -0.3,0.7 -0.6,1 l -7,6.9 c -0.4,0.4 -0.7,0.8 -0.8,1.3 -0.1,0.5 -0.1,0.9 0.1,1.4 l 3.3,6.9 c 0.1,0.3 0.1,0.7 0.1,1 -0.2,0.6 -0.6,1.1 -1.2,1.5 l -1.9,1.1 c -0.3,0.2 -0.6,0.3 -1,0.3 -0.5,0 -1,-0.3 -1.3,-0.8 L 29.9,43.8 C 29.7,43.3 29.4,43 29,43 c -0.5,0.1 -1,0.3 -1.3,0.8 l -5.4,5.3 c -0.4,0.5 -1,0.7 -1.6,0.8 -0.3,0 -0.7,-0.1 -0.9,-0.3 L 18.5,48.5 C 18.1,48.1 18,47.6 18.1,47 c 0.1,-0.4 0.3,-0.7 0.6,-1 l 6.9,-6.9 c 0.4,-0.4 0.7,-0.8 0.9,-1.3 0,-0.6 -0.1,-1 -0.3,-1.4 z"
     id="path4474"
     inkscape:connector-curvature="0"
     style="fill:#231f20" /><path
     class="st3"
     d="m 50.7,32.7 c -1.5,1.4 -2.6,3.2 -3.2,5.2 -0.6,1.8 -0.4,3.9 0.7,5.5 1,1.2 2.6,1.9 4.2,1.7 1.4,0 2.8,-0.3 4.1,-1 0.2,-0.1 0.5,-0.2 0.7,-0.2 1.1,0 1.8,1.5 1.4,3 -0.2,0.9 -0.9,1.7 -1.8,2.1 -1.8,0.8 -3.8,1.2 -5.8,1.1 -4.9,0 -7.8,-1.9 -9.2,-4.6 -1.1,-2.4 -1.2,-5.1 -0.5,-7.5 0.8,-2.8 2.3,-5.4 4.4,-7.5 3.2,-3.2 7.5,-4.9 12,-4.9 1.8,-0.1 3.6,0.3 5.2,1.1 0.6,0.5 0.7,1.2 0.5,1.9 -0.4,1.4 -1.7,2.9 -2.8,2.9 -0.2,0 -0.4,-0.1 -0.6,-0.2 -1,-0.7 -2.3,-1 -3.5,-1 -2.2,0.1 -4.2,0.9 -5.8,2.4 z"
     id="path4476"
     inkscape:connector-curvature="0"
     style="fill:#231f20" /><path
     class="st3"
     d="m 62.5,49.8 c -0.7,0 -1.3,-0.5 -1.4,-1.2 0,-0.2 0,-0.3 0.1,-0.5 l 5.5,-20.6 c 0.3,-1 1.2,-1.7 2.2,-1.7 h 2.3 c 0.7,0 1.3,0.5 1.4,1.2 0,0.2 0,0.4 -0.1,0.5 l -4.4,16.6 c -0.2,0.9 0.1,1.1 0.8,1.1 h 6 c 0.6,0 1.1,0.4 1.1,1 0,0.2 0,0.3 -0.1,0.4 l -0.5,1.8 c -0.2,0.8 -1,1.4 -1.8,1.4 z"
     id="path4478"
     inkscape:connector-curvature="0"
     style="fill:#231f20" /><path
     class="st3"
     d="m 92.1,27.1 c 0.8,-1.3 2,-1.4 3.6,-1.4 1.6,0 2.7,0.1 2.9,1.4 l 1.4,10.1 1.3,9.8 c 0,0.2 0,0.4 -0.1,0.7 -0.2,0.7 -0.8,1.3 -1.5,1.6 l -2,0.7 c -0.2,0.1 -0.5,0.1 -0.7,0.1 -0.7,0 -1.2,-0.4 -1.3,-1.1 l -0.5,-3.2 c 0,-0.5 -0.3,-0.7 -0.9,-0.7 h -7.8 c -0.5,0 -1,0.2 -1.3,0.7 L 83,49 c -0.4,0.6 -1.1,1 -1.9,1.1 -0.2,0 -0.4,0 -0.6,-0.1 L 78.9,49.3 C 78.3,49 78,48.3 78.2,47.7 78.3,47.5 78.4,47.2 78.5,47 l 6.9,-10.2 z m 1.7,13.5 c 0.4,0 0.6,-0.1 0.7,-0.3 0,-0.2 0,-0.3 0,-0.5 l -0.7,-5.4 c 0,-0.2 -0.1,-0.4 -0.3,-0.4 -0.2,0 -0.4,0.2 -0.5,0.4 l -3.6,5.4 c -0.1,0.1 -0.2,0.3 -0.3,0.5 -0.1,0.2 0.1,0.3 0.6,0.3 z"
     id="path4480"
     inkscape:connector-curvature="0"
     style="fill:#231f20" /><path
     class="st3"
     d="m 114.4,45.6 c -0.4,-2.8 -0.8,-5.6 -1.1,-8.4 -0.1,-0.2 -0.1,-0.4 -0.3,-0.4 -0.2,0 -0.4,0.3 -0.6,1 l -2.7,10.1 c -0.3,1 -1.2,1.7 -2.2,1.7 h -2.3 c -0.7,0 -1.3,-0.5 -1.4,-1.2 0,-0.2 0,-0.3 0.1,-0.5 l 5.5,-20.6 c 0.3,-1 1.2,-1.7 2.2,-1.7 h 3.3 c 0.7,-0.1 1.3,0.4 1.3,1.1 l 1.9,11.5 c 0.1,0.6 0.2,0.9 0.5,0.9 0.3,0 0.5,-0.3 1,-0.9 l 8,-11.5 c 0.4,-0.6 1.2,-1 1.9,-1.1 h 3.3 c 0.7,0 1.3,0.5 1.4,1.2 0,0.2 0,0.3 -0.1,0.5 l -5.5,20.6 c -0.3,1 -1.2,1.7 -2.2,1.7 h -2.3 c -0.7,0 -1.3,-0.5 -1.4,-1.2 0,-0.2 0,-0.4 0.1,-0.5 l 2.7,-10.1 c 0.2,-0.7 0.1,-1 0,-1 -0.2,0.1 -0.3,0.2 -0.5,0.4 -1.9,2.8 -3.7,5.6 -5.7,8.4 -0.5,1.1 -1.6,1.7 -2.8,1.5 -1.7,0.1 -1.9,-0.3 -2.1,-1.5 z"
     id="path4482"
     inkscape:connector-curvature="0"
     style="fill:#231f20" /><path
     class="st3"
     d="m 145.4,27.1 c 0.8,-1.3 2,-1.4 3.6,-1.4 1.6,0 2.7,0.1 2.9,1.4 l 1.4,10.1 1.3,9.8 c 0,0.2 0,0.4 -0.1,0.7 -0.2,0.7 -0.8,1.3 -1.5,1.6 l -2,0.7 c -0.2,0.1 -0.5,0.1 -0.7,0.1 -0.7,0 -1.2,-0.4 -1.3,-1.1 l -0.5,-3.2 c 0,-0.5 -0.3,-0.7 -0.9,-0.7 h -7.8 c -0.5,0 -1,0.2 -1.3,0.7 l -2.2,3.2 c -0.4,0.6 -1.1,1 -1.9,1.1 -0.2,0 -0.4,0 -0.6,-0.1 l -1.6,-0.7 c -0.6,-0.3 -0.9,-1 -0.7,-1.6 0.1,-0.2 0.2,-0.5 0.3,-0.7 l 6.9,-10.2 z m 1.7,13.5 c 0.4,0 0.6,-0.1 0.7,-0.3 0,-0.2 0,-0.3 0,-0.5 l -0.7,-5.4 c 0,-0.2 -0.1,-0.4 -0.3,-0.4 -0.2,0 -0.4,0.2 -0.5,0.4 l -3.6,5.4 c -0.1,0.1 -0.2,0.3 -0.3,0.5 -0.1,0.2 0.1,0.3 0.6,0.3 z"
     id="path4484"
     inkscape:connector-curvature="0"
     style="fill:#231f20" /><path
     class="st3"
     d="m 175,25.7 c 0.6,0 1.1,0.5 1.1,1 0,0.1 0,0.3 -0.1,0.4 l -0.5,1.7 c -0.2,0.8 -1,1.4 -1.8,1.5 h -3.2 c -0.7,0 -1.3,0.4 -1.4,1.1 L 164.7,48 c -0.3,1 -1.2,1.7 -2.2,1.7 h -2.3 c -0.7,0 -1.3,-0.5 -1.4,-1.2 0,-0.2 0,-0.3 0.1,-0.5 l 4.4,-16.6 c 0.2,-0.7 -0.1,-1.1 -0.9,-1.1 h -3.2 c -0.6,0 -1.1,-0.4 -1.1,-1 0,-0.1 0,-0.3 0.1,-0.4 l 0.5,-1.7 c 0.3,-0.8 1,-1.4 1.8,-1.4 H 175 Z"
     id="path4486"
     inkscape:connector-curvature="0"
     style="fill:#231f20" /><path
     class="st3"
     d="M 184.2,27.4 178.7,48 c -0.3,1 -1.2,1.7 -2.2,1.7 h -2.3 c -0.7,0 -1.3,-0.5 -1.4,-1.2 0,-0.2 0,-0.3 0.1,-0.5 l 5.5,-20.6 c 0.3,-1 1.2,-1.7 2.2,-1.7 h 2.3 c 0.7,0 1.3,0.5 1.4,1.2 -0.1,0.2 -0.1,0.3 -0.1,0.5 z"
     id="path4488"
     inkscape:connector-curvature="0"
     style="fill:#231f20" /><path
     class="st3"
     d="m 185.1,46.1 c -1.3,-2.5 -1.6,-5.5 -0.8,-8.2 0.8,-2.8 2.2,-5.3 4.2,-7.3 2.9,-3.1 7,-4.9 11.3,-5 4.1,0 6.8,1.6 8.2,4 1.3,2.5 1.6,5.4 0.8,8.1 -0.8,2.9 -2.4,5.6 -4.6,7.8 -2.9,2.9 -6.8,4.6 -10.9,4.6 -4.1,0 -6.8,-1.6 -8.2,-4 z M 193,33 c -1.2,1.3 -2.1,2.9 -2.5,4.7 -0.5,1.5 -0.5,3.2 0,4.7 0.6,1.7 2.4,2.9 4.2,2.7 2.2,-0.1 4.3,-1.1 5.8,-2.8 1.2,-1.3 2,-2.9 2.5,-4.6 0.5,-1.6 0.4,-3.4 -0.2,-5 -0.7,-1.6 -2.4,-2.6 -4.1,-2.4 -2.3,0.1 -4.4,1.1 -5.7,2.7 z"
     id="path4490"
     inkscape:connector-curvature="0"
     style="fill:#231f20" /><path
     class="st3"
     d="m 221.7,25.7 c 0.6,-0.1 1.1,0.3 1.3,0.9 l 2.4,8.2 c 0.5,1.7 1,3.5 1.5,5.2 0.1,0.2 0.2,0.3 0.4,0.4 0.1,0 0.3,-0.2 0.4,-0.6 L 231,27.4 c 0.3,-1 1.2,-1.7 2.2,-1.7 h 2.3 c 0.7,0 1.3,0.5 1.4,1.2 0,0.2 0,0.3 -0.1,0.5 L 231.3,48 c -0.3,1 -1.2,1.7 -2.2,1.7 h -2.5 c -0.9,0 -1.6,0 -1.8,-0.9 L 221,36 c -0.1,-0.4 -0.3,-0.5 -0.5,-0.5 -0.2,0 -0.4,0.3 -0.6,0.7 l -3.1,11.7 c -0.3,1 -1.2,1.7 -2.2,1.7 h -2.3 c -0.7,0 -1.3,-0.5 -1.4,-1.2 0,-0.2 0,-0.3 0.1,-0.5 l 5.5,-20.6 c 0.3,-1 1.2,-1.7 2.2,-1.7 z"
     id="path4492"
     inkscape:connector-curvature="0"
     style="fill:#231f20" /><path
     class="st3"
     d="M 130.1,82.2 V 61.9 h 11.8 v 1.6 h -10 v 7.8 h 8.5 V 73 h -8.5 v 9.2 z"
     id="path4494"
     inkscape:connector-curvature="0"
     style="fill:#231f20" /><path
     class="st3"
     d="m 145.2,76.1 c -0.3,-1.3 -0.5,-2.7 -0.5,-4 0,-1.3 0.1,-2.6 0.5,-3.9 0.3,-1 0.7,-2 1.2,-2.9 0.5,-0.8 1.1,-1.4 1.9,-2 0.7,-0.5 1.5,-0.9 2.3,-1.1 1.7,-0.5 3.5,-0.5 5.1,0 0.8,0.3 1.6,0.6 2.3,1.1 0.7,0.6 1.4,1.2 1.9,2 0.6,0.9 1,1.9 1.2,2.9 0.6,2.6 0.6,5.3 0,7.8 -0.2,1 -0.7,2 -1.2,2.9 -0.5,0.8 -1.1,1.5 -1.9,2 -0.7,0.5 -1.5,0.9 -2.3,1.1 -1.7,0.5 -3.4,0.5 -5.1,0 -0.8,-0.2 -1.6,-0.6 -2.3,-1.1 -0.7,-0.5 -1.4,-1.2 -1.9,-2 -0.5,-0.8 -0.9,-1.8 -1.2,-2.8 z m 1.5,-4 c 0,1.1 0.1,2.2 0.4,3.3 0.2,0.9 0.5,1.7 1,2.5 0.4,0.6 0.9,1.2 1.5,1.6 0.5,0.4 1.1,0.7 1.8,0.9 0.6,0.2 1.3,0.3 2,0.3 0.7,0 1.4,-0.1 2,-0.3 0.6,-0.2 1.3,-0.5 1.8,-0.9 0.6,-0.5 1.1,-1 1.5,-1.6 0.5,-0.8 0.8,-1.6 1,-2.5 0.3,-1.1 0.4,-2.2 0.4,-3.3 0,-1.1 -0.1,-2.3 -0.4,-3.4 -0.2,-0.9 -0.5,-1.7 -1,-2.5 -0.4,-0.6 -0.9,-1.2 -1.5,-1.6 -0.5,-0.4 -1.1,-0.7 -1.8,-0.9 -0.7,-0.2 -1.3,-0.3 -2,-0.3 -0.7,0 -1.3,0.1 -2,0.3 -0.6,0.2 -1.3,0.5 -1.8,0.9 -0.6,0.5 -1.1,1 -1.5,1.6 -0.5,0.8 -0.8,1.6 -1,2.5 -0.3,1.1 -0.4,2.3 -0.4,3.4 z"
     id="path4496"
     inkscape:connector-curvature="0"
     style="fill:#231f20" /><path
     class="st3"
     d="M 166.3,74 V 62 h 1.9 v 12.1 c 0,2.3 0.5,4 1.4,5.1 2.3,2.1 5.8,2.1 8.1,0 0.9,-1.1 1.4,-2.8 1.4,-5.1 V 62 h 1.9 v 12 c 0,1.1 -0.1,2.3 -0.4,3.4 -0.2,0.9 -0.5,1.7 -1,2.4 -0.4,0.6 -0.9,1.2 -1.6,1.6 -0.6,0.4 -1.3,0.7 -2,0.9 -1.6,0.3 -3.2,0.3 -4.8,0 -0.7,-0.2 -1.4,-0.5 -2,-0.9 -0.6,-0.4 -1.2,-0.9 -1.6,-1.6 -0.5,-0.7 -0.8,-1.6 -1,-2.4 -0.3,-1.2 -0.4,-2.3 -0.3,-3.4 z"
     id="path4498"
     inkscape:connector-curvature="0"
     style="fill:#231f20" /><path
     class="st3"
     d="M 186.5,82.2 V 61.9 h 2.2 l 10.2,17.4 V 61.9 h 1.9 v 20.3 h -2.2 L 188.3,65 v 17.1 z"
     id="path4500"
     inkscape:connector-curvature="0"
     style="fill:#231f20" /><path
     class="st3"
     d="M 206.5,82.2 V 61.9 h 5.1 c 1,0 2.1,0.1 3.1,0.4 0.9,0.2 1.8,0.6 2.7,1.2 0.8,0.5 1.5,1.2 2.1,2 0.6,0.9 1.1,1.9 1.4,2.9 0.7,2.7 0.6,5.6 -0.1,8.3 -0.3,1.2 -0.9,2.2 -1.8,3.1 -0.8,0.8 -1.7,1.4 -2.7,1.8 -1.1,0.4 -2.3,0.6 -3.5,0.6 z m 1.9,-1.6 h 4.3 c 1.9,0.1 3.7,-0.7 5,-2.1 1.2,-1.4 1.8,-3.5 1.8,-6.2 0,-1.3 -0.2,-2.7 -0.6,-3.9 -0.6,-2 -2.1,-3.6 -4.1,-4.3 -1,-0.4 -2.1,-0.5 -3.1,-0.5 h -3.2 z"
     id="path4502"
     inkscape:connector-curvature="0"
     style="fill:#231f20" /><path
     class="st3"
     d="m 223.6,82.2 7.6,-20.3 h 1.9 l 7.6,20.3 h -2 l -2.2,-6 h -8.7 l -2.2,6 z m 4.8,-7.5 h 7.6 l -3.8,-10.2 z"
     id="path4504"
     inkscape:connector-curvature="0"
     style="fill:#231f20" /><path
     class="st3"
     d="M 240.4,63.6 V 62 h 16.3 v 1.6 h -7.2 v 18.6 h -1.9 V 63.6 Z"
     id="path4506"
     inkscape:connector-curvature="0"
     style="fill:#231f20" /><path
     class="st3"
     d="M 260.2,82.2 V 61.9 h 1.9 v 20.3 z"
     id="path4508"
     inkscape:connector-curvature="0"
     style="fill:#231f20" /><path
     class="st3"
     d="m 267.3,76.1 c -0.3,-1.3 -0.5,-2.6 -0.5,-3.9 0,-1.3 0.1,-2.6 0.5,-3.9 0.2,-1 0.7,-2 1.2,-2.9 0.5,-0.8 1.1,-1.5 1.9,-2 0.7,-0.5 1.5,-0.9 2.3,-1.1 0.8,-0.2 1.7,-0.4 2.6,-0.4 0.9,0 1.7,0.1 2.6,0.4 0.8,0.2 1.6,0.6 2.3,1.1 0.7,0.5 1.4,1.2 1.9,2 0.6,0.9 1,1.9 1.2,2.9 0.6,2.6 0.6,5.3 0,7.8 -0.3,1 -0.7,2 -1.2,2.9 -0.5,0.8 -1.1,1.5 -1.9,2 -0.7,0.5 -1.5,0.9 -2.3,1.1 -1.7,0.5 -3.4,0.5 -5.1,0 -0.8,-0.2 -1.6,-0.6 -2.3,-1.1 -0.7,-0.5 -1.4,-1.2 -1.9,-2 -0.6,-0.9 -1,-1.9 -1.3,-2.9 z m 1.5,-3.9 c 0,1.1 0.1,2.2 0.4,3.3 0.2,0.9 0.5,1.7 1,2.5 0.4,0.6 0.9,1.2 1.5,1.6 0.5,0.4 1.1,0.7 1.8,0.9 1.3,0.4 2.7,0.4 3.9,0 0.6,-0.2 1.3,-0.5 1.8,-0.9 0.6,-0.5 1.1,-1 1.5,-1.6 0.5,-0.8 0.8,-1.6 1,-2.5 0.3,-1.1 0.4,-2.2 0.4,-3.3 0,-1.1 -0.1,-2.3 -0.4,-3.4 -0.2,-0.9 -0.5,-1.7 -1,-2.5 -0.4,-0.6 -0.9,-1.2 -1.5,-1.6 -0.5,-0.4 -1.1,-0.7 -1.8,-0.9 -1.3,-0.4 -2.7,-0.4 -3.9,0 -0.6,0.2 -1.2,0.5 -1.8,0.9 -0.6,0.5 -1.1,1 -1.5,1.6 -0.5,0.8 -0.8,1.6 -1,2.5 -0.3,1.1 -0.4,2.2 -0.4,3.4 z"
     id="path4510"
     inkscape:connector-curvature="0"
     style="fill:#231f20" /><path
     class="st3"
     d="M 288.6,82.2 V 61.9 h 2.2 L 301,79.3 V 61.9 h 1.9 v 20.3 h -2.2 L 290.5,65 v 17.1 z"
     id="path4512"
     inkscape:connector-curvature="0"
     style="fill:#231f20" /><path
     class="st3"
     d="m 275.6,0 c -16.6,0 -30.1,10.9 -30.1,24.3 0,7.3 4,13.8 10.3,18.3 -0.3,3.5 -6,7.8 -6,7.8 0,0 8,-0.1 10.6,-5 4.7,2.2 9.9,3.3 15.2,3.3 16.6,0 30.1,-10.9 30.1,-24.3 C 305.7,11 292.2,0 275.6,0"
     id="path4556"
     inkscape:connector-curvature="0"
     style="fill:#231f20" /><path
     class="st5"
     d="m 295.9,10.7 -0.2,0.2 c 0,0 0,0.1 0.1,0.1 l 0.9,0.1 c 0.4,0 0.6,0.3 0.5,0.6 -0.1,0.3 -0.1,0.6 0,0.9 0,0.3 -0.1,0.4 -0.3,0.4 l -0.6,0.1 c 0.6,0.4 1.3,0 1.8,0.4 -0.1,0.1 -0.2,0.3 -0.1,0.5 0.1,0.2 -0.1,0.2 -0.3,0.3 l -1.1,0.1 0.2,0.4 c -0.2,0.1 -0.4,0.2 -0.6,0.2 -0.5,0.1 -1.1,0.1 -1.6,0.2 -0.6,0.1 -1.2,0.1 -1.8,0 -0.6,0 -1.2,0 -1.9,0 -0.3,0 -0.6,0 -0.9,0 -0.3,0 -0.4,0 -0.7,0 l -2.8,0.1 c -0.2,0 -0.3,0 -0.5,0 -0.7,0 -0.7,0 -1,0.5 -0.1,0.2 -0.2,0.4 -0.3,0.7 -0.5,0.9 -1,1.8 -1.4,2.8 -0.2,0.5 -0.4,1 -0.7,1.5 -0.3,0.5 -0.6,1.2 -0.8,1.9 -0.1,0.2 -0.1,0.4 0,0.6 l 0.8,-0.1 2.5,-0.1 3.4,-0.3 c 0.6,-0.1 1.3,0 1.9,0.2 0,0.2 0,0.4 0,0.6 -0.7,0.1 -1.1,0.8 -1.9,1 l 0.2,0.1 c 0.2,0.1 0.5,0.2 0.3,0.6 0,0.1 0,0.2 0.1,0.4 l -0.9,0.1 c 0.1,0.4 -0.2,0.4 -0.6,0.4 0.5,0.1 0.8,0.2 0.9,0.6 -0.3,0.5 -0.3,0.5 -1,0.5 -0.7,0 -1.5,-0.1 -2.2,-0.2 L 282.5,27 c -0.6,0 -1.2,0 -1.8,0 -0.6,0 -0.7,0.2 -0.9,0.7 -0.1,0.3 -0.2,0.6 -0.3,0.9 -0.2,0.6 -0.4,1.2 -0.6,1.8 -0.2,0.6 -0.3,1 -0.5,1.5 -0.2,0.5 -0.4,0.9 -0.6,1.4 -0.2,0.5 -0.3,0.7 -0.4,1.1 0,0.1 -0.1,0.2 -0.1,0.4 -0.5,0.7 -0.8,1.5 -1.1,2.3 -0.2,0.4 -0.4,0.8 -0.6,1.2 0,0.1 -0.1,0.1 -0.2,0.2 -0.2,-0.4 0,-0.8 0,-1.3 l -0.2,0.3 c -0.1,0.1 -0.2,0.3 -0.3,0.4 -0.1,0.2 -0.3,0.3 -0.5,0.2 0,0 -0.1,0 -0.1,0 -0.1,0 -0.2,-0.1 -0.3,-0.1 -0.2,0.2 -0.2,0.6 -0.6,0.6 -0.3,-0.2 -0.4,-0.6 -0.3,-0.9 0,-0.1 0,-0.3 0,-0.4 -0.4,0.4 -0.3,1 -0.7,1.4 -0.4,-0.1 -0.4,-0.5 -0.4,-0.9 -0.2,0.2 -0.2,0.4 -0.3,0.6 -0.1,0.2 -0.3,0.2 -0.4,0 -0.1,-0.2 -0.2,-0.3 -0.2,-0.5 0,-0.2 0,-0.4 0.1,-0.6 0,-0.3 0.2,-0.5 0.1,-0.8 0,-0.1 0.1,-0.3 0.1,-0.4 0.5,-1.3 1.1,-2.7 1.5,-4 0.3,-1.1 0.7,-2.1 1.1,-3.1 0.4,-1 0.8,-1.9 1.2,-2.9 0.3,-0.6 0.6,-1.3 0.8,-1.9 0.2,-0.4 0.3,-0.8 0.5,-1.2 0.3,-0.8 0.6,-1.6 0.8,-2.4 0.2,-0.8 0.6,-1.9 0.9,-2.8 0.3,-0.9 0.6,-1.7 0.9,-2.5 0.1,-0.2 0.1,-0.4 0.2,-0.5 0.1,-0.2 0,-0.4 -0.1,-0.5 -0.2,-0.2 -0.2,-0.4 -0.1,-0.6 0.2,-0.7 0.5,-1.3 0.9,-1.9 0.3,-0.4 0.8,-0.6 1.3,-0.6 1.1,-0.1 2.2,-0.2 3.3,-0.4 0.4,0 0.8,-0.1 1.2,-0.2 0.6,0 1.2,0 1.8,-0.1 0.6,-0.1 1.3,0 2,0 0.4,0 0.8,0 1.2,0 0.4,0 0.7,0 1.1,0 1,0 1.9,0 2.9,0 0.4,0 0.7,0.1 1.1,0.1 -0.2,-0.1 -0.1,0 0,0.1"
     id="path4558"
     inkscape:connector-curvature="0"
     style="fill:#ffffff" /><path
     class="st5"
     d="m 271.4,9.9 0.5,0.1 v 0 c 0.5,0.1 0.9,0.2 1.4,0.2 0.1,0 0.2,0.1 0.2,0.1 0,0.2 0.2,0.5 0,0.7 -0.6,1.1 -1.2,2.3 -1.8,3.4 -0.4,0.7 -1,1.4 -1.4,2.2 -0.2,0.4 -0.4,0.8 -0.7,1.3 0,0.1 -0.1,0.1 -0.2,0.2 -0.1,0.2 -0.3,0.4 -0.3,0.6 0,0 0,0.1 0,0.1 -0.2,0.3 -0.4,0.7 -0.6,1 -0.1,0.3 -0.3,0.6 -0.4,0.9 -0.3,0.4 -0.3,0.9 -0.5,1.3 -0.4,0.6 -0.7,1.1 -1,1.7 -0.2,0.5 -0.5,1.1 -0.6,1.6 -0.2,0.5 -0.3,1 -0.4,1.4 -0.1,0.2 -0.2,0.3 -0.3,0.5 -0.1,0.2 -0.2,0.4 -0.3,0.6 -0.2,0.5 -0.3,0.9 -0.4,1.3 -0.2,0.6 -0.5,1.2 -0.7,1.8 -0.2,0.6 -0.5,1.4 -0.7,2.1 -0.1,0.2 -0.2,0.4 -0.3,0.6 -0.2,0.1 -0.5,0.1 -0.8,0 -0.2,-0.1 -0.5,-0.1 -0.8,-0.2 -0.3,-0.1 -0.6,-0.1 -0.9,0 -0.2,0 -0.4,0 -0.5,0 -0.2,-0.3 -0.2,-0.3 -0.3,-0.9 l -0.4,0.2 c -0.1,0.1 -0.3,0.1 -0.4,-0.1 -0.1,-0.1 -0.1,-0.3 0,-0.4 0,-0.5 0,-0.9 0.1,-1.4 0.2,-1 0.3,-2 0.6,-3 0.2,-0.8 0.5,-1.6 0.8,-2.5 0.3,-0.9 0.5,-1.5 0.8,-2.2 0.3,-1 0.6,-2 0.9,-2.9 0.3,-0.8 0.7,-1.6 1,-2.4 0.3,-0.8 0.8,-1.8 1.2,-2.7 0.2,-0.5 0.5,-1 0.8,-1.5 0.1,-0.1 0.1,-0.3 0.2,-0.4 0.1,-0.2 0.2,-0.4 0.3,-0.5 0.4,-0.7 0.7,-1.4 1,-2.1 0.1,-0.3 0.3,-0.6 0.6,-0.9 0.2,-0.1 0.4,-0.2 0.6,-0.2 l 1.2,-0.4 c 0.5,-0.1 1.1,-0.1 1.6,0 0.3,0.1 0.7,0.1 1,0.2 0.3,0.1 0,0.3 -0.1,0.6"
     id="path4560"
     inkscape:connector-curvature="0"
     style="fill:#ffffff" /><path
     class="st5"
     d="m 257.4,38.7 c 0,-0.6 0.2,-1.2 0.6,-1.6 0.2,-0.3 0.4,-0.6 0.6,-0.9 0.5,-0.6 1.2,-1 2,-1 0.7,0 1.4,0.1 2.1,0.3 0.3,0.1 0.5,0.4 0.4,0.7 -0.3,1 -0.8,1.9 -1.4,2.6 -0.2,0.2 -0.4,0.4 -0.6,0.6 -0.3,0.2 -0.6,0.3 -1,0.4 -0.4,0.1 -0.8,0.2 -1.2,0.2 -0.9,-0.1 -1.8,-0.7 -1.5,-1.3"
     id="path4562"
     inkscape:connector-curvature="0"
     style="fill:#ffffff" /></svg>